<svg width="35" height="35" viewBox="0 0 35 35" fill="none" xmlns="http://www.w3.org/2000/svg">
<path d="M26.2675 0H8.04107C3.60011 0 0 3.60011 0 8.04107V26.2675C0 30.7084 3.60011 34.3085 8.04107 34.3085H26.2675C30.7084 34.3085 34.3085 30.7084 34.3085 26.2675V8.04107C34.3085 3.60011 30.7084 0 26.2675 0Z" fill="url(#paint0_radial_112_321)"/>
<path d="M26.2675 0H8.04107C3.60011 0 0 3.60011 0 8.04107V26.2675C0 30.7084 3.60011 34.3085 8.04107 34.3085H26.2675C30.7084 34.3085 34.3085 30.7084 34.3085 26.2675V8.04107C34.3085 3.60011 30.7084 0 26.2675 0Z" fill="url(#paint1_radial_112_321)"/>
<path d="M17.1555 3.75244C13.5158 3.75244 13.059 3.76839 11.6295 3.83339C10.2028 3.89879 9.22887 4.12461 8.37679 4.45603C7.49522 4.79832 6.74753 5.25625 6.00266 6.00139C5.25712 6.7464 4.79918 7.49408 4.45583 8.37525C4.12346 9.2276 3.89738 10.2019 3.83318 11.628C3.76925 13.0576 3.7525 13.5146 3.7525 17.1544C3.7525 20.7941 3.76858 21.2495 3.83345 22.679C3.89912 24.1057 4.12494 25.0796 4.4561 25.9317C4.79865 26.8133 5.25658 27.561 6.00172 28.3058C6.74646 29.0514 7.49414 29.5104 8.37504 29.8527C9.2278 30.1841 10.2018 30.4099 11.6283 30.4753C13.0579 30.5403 13.5144 30.5563 17.1539 30.5563C20.7939 30.5563 21.2493 30.5403 22.6788 30.4753C24.1055 30.4099 25.0805 30.1841 25.9332 29.8527C26.8144 29.5104 27.561 29.0514 28.3056 28.3058C29.0512 27.561 29.509 26.8133 29.8525 25.9321C30.1819 25.0796 30.4081 24.1054 30.4751 22.6792C30.5393 21.2498 30.5561 20.7941 30.5561 17.1544C30.5561 13.5146 30.5393 13.0578 30.4751 11.6283C30.4081 10.2015 30.1819 9.22774 29.8525 8.37565C29.509 7.49408 29.0512 6.7464 28.3056 6.00139C27.5602 5.25599 26.8147 4.79805 25.9324 4.45617C25.0781 4.12461 24.1036 3.89865 22.6769 3.83339C21.2473 3.76839 20.7922 3.75244 17.1513 3.75244H17.1555ZM15.9532 6.16758C16.3101 6.16704 16.7083 6.16758 17.1555 6.16758C20.7339 6.16758 21.1579 6.18044 22.571 6.24464C23.8777 6.30441 24.5869 6.52272 25.0593 6.70619C25.6848 6.94903 26.1307 7.23945 26.5994 7.70865C27.0685 8.17771 27.3588 8.62439 27.6023 9.24985C27.7858 9.72159 28.0044 10.4308 28.0639 11.7375C28.1281 13.1503 28.142 13.5746 28.142 17.1513C28.142 20.7279 28.1281 21.1524 28.0639 22.565C28.0041 23.8717 27.7858 24.5809 27.6023 25.0528C27.3595 25.6783 27.0685 26.1236 26.5994 26.5924C26.1304 27.0615 25.685 27.3518 25.0593 27.5947C24.5874 27.779 23.8777 27.9968 22.571 28.0566C21.1582 28.1208 20.7339 28.1347 17.1555 28.1347C13.5769 28.1347 13.1528 28.1208 11.7401 28.0566C10.4334 27.9963 9.7242 27.7779 9.25138 27.5945C8.62606 27.3515 8.17924 27.0612 7.71018 26.5921C7.24112 26.1231 6.95084 25.6775 6.70733 25.0517C6.52386 24.5799 6.30527 23.8706 6.24577 22.564C6.18157 21.1512 6.16871 20.7269 6.16871 17.1479C6.16871 13.5691 6.18157 13.147 6.24577 11.7341C6.30554 10.4275 6.52386 9.71824 6.70733 9.24583C6.9503 8.62037 7.24112 8.17369 7.71031 7.70462C8.17938 7.23556 8.62606 6.94515 9.25152 6.70177C9.72393 6.5175 10.4334 6.29972 11.7401 6.23968C12.9764 6.18379 13.4555 6.16704 15.9532 6.16422V6.16758ZM24.3094 8.39281C23.4215 8.39281 22.7011 9.11248 22.7011 10.0005C22.7011 10.8884 23.4215 11.6087 24.3094 11.6087C25.1972 11.6087 25.9176 10.8884 25.9176 10.0005C25.9176 9.11262 25.1972 8.39227 24.3094 8.39227V8.39281ZM17.1555 10.2719C13.3547 10.2719 10.2731 13.3535 10.2731 17.1544C10.2731 20.9552 13.3547 24.0354 17.1555 24.0354C20.9564 24.0354 24.0369 20.9552 24.0369 17.1544C24.0369 13.3536 20.9561 10.2719 17.1552 10.2719H17.1555ZM17.1555 12.687C19.6226 12.687 21.6228 14.6869 21.6228 17.1544C21.6228 19.6215 19.6226 21.6217 17.1555 21.6217C14.6882 21.6217 12.6883 19.6215 12.6883 17.1544C12.6883 14.6869 14.6882 12.687 17.1555 12.687Z" fill="white"/>
<defs>
<radialGradient id="paint0_radial_112_321" cx="0" cy="0" r="1" gradientUnits="userSpaceOnUse" gradientTransform="translate(9.11321 36.951) rotate(-90) scale(34.0023 31.6248)">
<stop stop-color="#FFDD55"/>
<stop offset="0.1" stop-color="#FFDD55"/>
<stop offset="0.5" stop-color="#FF543E"/>
<stop offset="1" stop-color="#C837AB"/>
</radialGradient>
<radialGradient id="paint1_radial_112_321" cx="0" cy="0" r="1" gradientUnits="userSpaceOnUse" gradientTransform="translate(-5.74682 2.47142) rotate(78.681) scale(15.1992 62.6517)">
<stop stop-color="#3771C8"/>
<stop offset="0.128" stop-color="#3771C8"/>
<stop offset="1" stop-color="#6600FF" stop-opacity="0"/>
</radialGradient>
</defs>
</svg>
