<svg width="33" height="33" viewBox="0 0 33 33" fill="none" xmlns="http://www.w3.org/2000/svg">
<g clip-path="url(#clip0_437_446)">
<path fill-rule="evenodd" clip-rule="evenodd" d="M32.9576 16.5676C32.9337 19.8169 31.9459 22.9863 30.1189 25.6759C28.2919 28.3655 25.7076 30.4547 22.6921 31.6798C19.6766 32.9049 16.3651 33.2111 13.1754 32.5597C9.98574 31.9083 7.06088 30.3284 4.76995 28.0196C2.47902 25.7108 0.924691 22.7764 0.303115 19.5867C-0.318462 16.3971 0.0205723 13.0952 1.27743 10.0977C2.53429 7.10014 4.65265 4.54137 7.36517 2.74426C10.0777 0.947156 13.2628 -0.00775231 16.5186 4.74021e-05C20.899 0.0240758 25.0907 1.78242 28.173 4.88884C31.2553 7.99527 32.9762 12.1957 32.9576 16.5676Z" fill="black"/>
<path d="M16.5187 29.274C23.4587 29.274 29.0847 23.6214 29.0847 16.6487C29.0847 9.67596 23.4587 4.02344 16.5187 4.02344C9.57863 4.02344 3.95264 9.67596 3.95264 16.6487C3.95264 23.6214 9.57863 29.274 16.5187 29.274Z" fill="#F7D622"/>
<path fill-rule="evenodd" clip-rule="evenodd" d="M18.6516 8.36485H10.4326C10.8718 8.81255 11.217 9.34336 11.4478 9.9261C11.6786 10.5088 11.7904 11.1317 11.7766 11.7582C11.7678 13.0169 11.2885 14.227 10.4326 15.1516H18.6516C19.5514 15.1453 20.4125 14.7858 21.0488 14.1507C21.685 13.5157 22.0453 12.6562 22.0516 11.7582C22.0552 11.3116 21.9697 10.8687 21.8001 10.4554C21.6305 10.0421 21.3802 9.66656 21.0637 9.35074C20.7473 9.03492 20.3711 8.78511 19.9569 8.61585C19.5428 8.44659 19.0991 8.36127 18.6516 8.36485Z" fill="black"/>
<path fill-rule="evenodd" clip-rule="evenodd" d="M20.0746 17.9917H10.4326C10.8718 18.4394 11.217 18.9702 11.4478 19.5529C11.6786 20.1357 11.7904 20.7586 11.7766 21.3851C11.7678 22.6438 11.2885 23.8539 10.4326 24.7784H20.0746C20.9763 24.7784 21.8411 24.4209 22.4787 23.7845C23.1163 23.1481 23.4746 22.285 23.4746 21.3851C23.4746 20.4851 23.1163 19.622 22.4787 18.9856C21.8411 18.3492 20.9763 17.9917 20.0746 17.9917Z" fill="black"/>
</g>
<defs>
<clipPath id="clip0_437_446">
<rect width="33" height="33" fill="white"/>
</clipPath>
</defs>
</svg>
